<svg width="723" height="563" viewBox="0 0 723 563" fill="none" xmlns="http://www.w3.org/2000/svg">
<rect y="113.209" width="461.935" height="463.556" rx="20" transform="rotate(-14.1863 0 113.209)" fill="#DB4437"/>
<rect x="66.3153" y="244.975" width="393" height="283" rx="12" transform="rotate(-14.1863 66.3153 244.975)" fill="white"/>
<path d="M68.5211 253.7C66.8969 247.275 70.7889 240.75 77.2142 239.126L434.961 148.693C441.387 147.069 447.912 150.961 449.536 157.386L459.584 197.136L78.5692 293.45L68.5211 253.7Z" fill="#E57C73"/>
<path d="M65.7546 214.204L60.1462 191.709L65.7002 190.324L74.9221 201.271L77.8911 187.285L83.4101 185.909L89.0185 208.404L83.3947 209.807L80.1725 196.882L78.0005 207.07L74.8917 207.845L68.1563 199.878L71.3785 212.802L65.7546 214.204ZM97.8236 206.58C96.7756 206.842 95.7511 206.899 94.75 206.753C93.7722 206.601 92.9197 206.208 92.1925 205.573C91.4595 204.914 90.9479 204.003 90.6576 202.839C90.2338 201.139 90.4734 199.669 91.3764 198.43C92.2969 197.162 93.9099 196.24 96.2153 195.665L100.826 194.516L100.73 194.131C100.521 193.293 100.094 192.769 99.4479 192.559C98.7962 192.326 97.7018 192.401 96.1648 192.784C94.2786 193.254 92.4998 194.007 90.8285 195.042L89.9228 191.409C90.6566 190.88 91.5796 190.365 92.6917 189.865C93.8271 189.36 95.0468 188.944 96.3509 188.619C98.9125 187.98 101.046 188.005 102.751 188.693C104.479 189.375 105.628 190.857 106.197 193.14L108.775 203.479L103.849 204.707L103.222 203.379C102.755 204.089 102.083 204.715 101.203 205.255C100.347 205.79 99.2208 206.232 97.8236 206.58ZM98.7429 202.678C99.6278 202.457 100.359 202.114 100.935 201.649C101.512 201.184 101.94 200.669 102.22 200.105L101.636 197.764L97.654 198.757C96.0006 199.169 95.3394 200.039 95.6703 201.366C95.8213 201.972 96.1499 202.397 96.6561 202.642C97.1624 202.887 97.858 202.899 98.7429 202.678ZM117.036 207.949C116.198 208.158 115.464 208.292 114.835 208.35C114.236 208.425 113.616 208.419 112.976 208.331L112 204.419C112.431 204.46 112.815 204.463 113.153 204.428C113.514 204.388 113.869 204.324 114.218 204.237C115.173 203.999 115.84 203.647 116.218 203.182C116.626 202.734 116.967 202.018 117.241 201.034L105.751 186.646L111.655 185.175L118.642 194.6L120.318 183.015L126.186 181.552L123.652 198.323C123.4 199.993 123.03 201.483 122.54 202.793C122.056 204.125 121.377 205.222 120.503 206.083C119.636 206.967 118.48 207.589 117.036 207.949Z" fill="white"/>
<path d="M88.3757 270.548C87.5484 270.758 86.7565 270.889 85.9999 270.943C85.2595 271.006 84.6014 270.987 84.0255 270.885L83.354 268.228C83.9849 268.33 84.6624 268.372 85.3868 268.354C86.124 268.333 86.8029 268.244 87.4234 268.087C88.199 267.891 88.7563 267.674 89.0952 267.437C89.447 267.197 89.5625 266.838 89.4416 266.359C89.3599 266.036 89.1976 265.802 88.9547 265.657C88.7247 265.509 88.3785 265.418 87.9159 265.384C87.4631 265.333 86.8485 265.296 86.0724 265.272C85.1538 265.229 84.4033 265.116 83.8207 264.933C83.2349 264.738 82.7749 264.441 82.4408 264.045C82.1067 263.648 81.8563 263.12 81.6896 262.46C81.389 261.271 81.5852 260.252 82.2783 259.403C82.9713 258.554 84.1516 257.918 85.8192 257.497C86.5431 257.314 87.2623 257.194 87.9768 257.137C88.6881 257.067 89.2749 257.05 89.7375 257.084L90.4139 259.76C89.8025 259.681 89.1993 259.661 88.6044 259.702C88.0224 259.739 87.4664 259.824 86.9364 259.958C86.2384 260.135 85.6859 260.343 85.2791 260.583C84.8852 260.82 84.7471 261.172 84.8647 261.637C84.9333 261.909 85.0664 262.109 85.264 262.238C85.4584 262.353 85.7593 262.429 86.1669 262.463C86.5873 262.494 87.1501 262.517 87.8551 262.531C88.9449 262.545 89.8103 262.677 90.4513 262.927C91.089 263.165 91.5749 263.51 91.9092 263.962C92.2402 264.4 92.4841 264.93 92.641 265.551C92.9187 266.649 92.7176 267.649 92.0376 268.55C91.3544 269.438 90.1338 270.104 88.3757 270.548ZM98.2221 268.059C97.1363 268.334 96.2128 268.244 95.4516 267.79C94.6872 267.323 94.1563 266.502 93.859 265.325L92.3983 259.547L95.5201 258.758L96.9367 264.362C97.0674 264.879 97.2866 265.229 97.5943 265.413C97.9116 265.58 98.3224 265.6 98.8265 265.472C99.2014 265.378 99.5373 265.21 99.8341 264.97C100.131 264.73 100.36 264.466 100.521 264.178L98.9328 257.895L102.055 257.106L104.378 266.297L101.469 267.032L101.176 266.281C100.873 266.66 100.48 267.007 99.9955 267.322C99.5113 267.637 98.9201 267.883 98.2221 268.059ZM106.355 265.797L104.032 256.606L106.94 255.871L107.238 256.642C107.548 256.288 107.962 255.943 108.482 255.605C108.998 255.255 109.58 254.998 110.226 254.834C111.415 254.534 112.353 254.599 113.04 255.031C113.727 255.462 114.221 256.272 114.521 257.462L116.011 263.356L112.889 264.145L111.463 258.503C111.332 257.986 111.129 257.645 110.854 257.481C110.579 257.317 110.157 257.307 109.588 257.45C109.252 257.535 108.929 257.699 108.619 257.943C108.309 258.186 108.067 258.454 107.894 258.745L109.477 265.008L106.355 265.797Z" fill="white"/>
<path d="M138.644 257.635L135.488 245.148L138.571 244.368L143.714 250.433L145.338 242.658L148.402 241.883L151.558 254.371L148.436 255.16L146.623 247.985L145.435 253.649L143.709 254.086L139.953 249.672L141.766 256.846L138.644 257.635ZM158.366 252.856C156.595 253.304 155.187 253.226 154.141 252.624C153.091 252.01 152.37 250.926 151.978 249.375C151.589 247.837 151.711 246.548 152.342 245.508C152.986 244.465 154.187 243.722 155.945 243.277C157.716 242.83 159.126 242.913 160.175 243.528C161.238 244.14 161.963 245.215 162.352 246.753C162.744 248.304 162.625 249.6 161.994 250.639C161.359 251.666 160.15 252.405 158.366 252.856ZM157.749 250.413C158.472 250.23 158.944 249.918 159.162 249.478C159.381 249.037 159.384 248.397 159.172 247.557C158.96 246.717 158.653 246.155 158.251 245.871C157.849 245.588 157.286 245.537 156.562 245.72C155.851 245.9 155.387 246.21 155.168 246.651C154.949 247.091 154.946 247.731 155.158 248.571C155.371 249.412 155.678 249.974 156.079 250.257C156.481 250.541 157.038 250.593 157.749 250.413ZM165.097 250.948L162.774 241.757L165.683 241.022L165.981 241.792C166.29 241.439 166.705 241.094 167.224 240.756C167.741 240.405 168.322 240.148 168.969 239.985C170.158 239.684 171.096 239.75 171.783 240.181C172.469 240.613 172.963 241.423 173.264 242.613L174.754 248.507L171.632 249.296L170.206 243.654C170.075 243.137 169.872 242.796 169.597 242.632C169.321 242.468 168.899 242.457 168.33 242.601C167.994 242.686 167.671 242.85 167.362 243.094C167.052 243.337 166.81 243.604 166.636 243.896L168.219 250.159L165.097 250.948Z" fill="white"/>
<path d="M199.704 242.2L197.155 232.117L193.49 233.044L192.882 230.639L203.334 227.997L203.941 230.402L200.277 231.328L202.825 241.411L199.704 242.2ZM209.833 239.846C208.747 240.12 207.823 240.031 207.062 239.577C206.298 239.11 205.767 238.288 205.47 237.112L204.009 231.334L207.131 230.545L208.547 236.148C208.678 236.665 208.897 237.016 209.205 237.199C209.522 237.366 209.933 237.386 210.437 237.259C210.812 237.164 211.148 236.997 211.445 236.757C211.742 236.517 211.971 236.252 212.132 235.964L210.543 229.682L213.665 228.893L215.989 238.084L213.08 238.819L212.787 238.068C212.484 238.447 212.09 238.794 211.606 239.109C211.122 239.424 210.531 239.67 209.833 239.846ZM222.94 236.533C221.337 236.938 219.951 236.869 218.782 236.325C217.61 235.769 216.821 234.689 216.416 233.086C216.047 231.626 216.154 230.361 216.736 229.292C217.319 228.224 218.411 227.487 220.014 227.082C221.475 226.712 222.701 226.801 223.692 227.348C224.683 227.896 225.338 228.803 225.659 230.069L226.075 231.717L219.56 233.364C219.856 233.936 220.293 234.279 220.873 234.394C221.461 234.493 222.208 234.428 223.113 234.199C223.617 234.072 224.116 233.897 224.611 233.676C225.118 233.452 225.528 233.224 225.841 232.994L226.356 235.03C225.968 235.348 225.482 235.629 224.898 235.873C224.316 236.13 223.664 236.35 222.94 236.533ZM219.104 231.561L222.905 230.6L222.802 230.193C222.687 229.741 222.462 229.42 222.125 229.23C221.785 229.027 221.292 229.007 220.645 229.171C219.896 229.36 219.411 229.648 219.192 230.033C218.97 230.405 218.941 230.915 219.104 231.561Z" fill="white"/>
<path d="M249.749 229.549L243.684 217.798L246.748 217.023L250.298 224.13L250.548 217.94L250.102 216.175L252.662 215.528L256.721 222.527L256.54 214.548L259.603 213.773L259.871 226.991L256.982 227.721L253.064 221.037L252.638 228.819L249.749 229.549ZM268.052 225.129C266.449 225.534 265.063 225.465 263.894 224.922C262.722 224.365 261.933 223.286 261.528 221.683C261.159 220.222 261.265 218.957 261.848 217.889C262.43 216.82 263.523 216.083 265.126 215.678C266.587 215.309 267.813 215.398 268.804 215.945C269.795 216.492 270.45 217.399 270.77 218.666L271.187 220.314L264.672 221.961C264.968 222.532 265.405 222.876 265.984 222.991C266.573 223.089 267.32 223.024 268.225 222.796C268.729 222.668 269.228 222.494 269.722 222.273C270.23 222.048 270.64 221.821 270.953 221.59L271.467 223.626C271.08 223.944 270.594 224.225 270.01 224.469C269.428 224.726 268.775 224.946 268.052 225.129ZM264.216 220.158L268.017 219.197L267.914 218.79C267.799 218.337 267.574 218.016 267.237 217.826C266.897 217.623 266.404 217.604 265.757 217.767C265.008 217.956 264.523 218.244 264.304 218.629C264.082 219.002 264.053 219.511 264.216 220.158ZM277.589 222.718C276.697 222.944 275.898 222.994 275.193 222.87C274.488 222.746 273.885 222.403 273.386 221.842C272.883 221.267 272.493 220.431 272.215 219.332C271.934 218.22 271.893 217.241 272.091 216.393C272.286 215.532 272.671 214.823 273.245 214.265C273.829 213.691 274.56 213.293 275.439 213.071C275.917 212.95 276.357 212.894 276.758 212.903C277.172 212.908 277.573 212.972 277.962 213.093L276.873 208.789L279.995 208L283.299 221.069L280.604 221.75L280.233 221.018C279.94 221.436 279.582 221.788 279.159 222.074C278.733 222.347 278.21 222.561 277.589 222.718ZM277.908 220.224C278.593 220.051 279.116 219.671 279.476 219.085L278.535 215.362C277.994 215.072 277.381 215.014 276.696 215.187C276.037 215.354 275.596 215.734 275.375 216.326C275.163 216.902 275.171 217.643 275.4 218.548C275.622 219.427 275.931 219.967 276.326 220.17C276.734 220.37 277.261 220.388 277.908 220.224Z" fill="white"/>
<path d="M305.379 215.487L302.83 205.404L299.166 206.331L298.558 203.926L309.009 201.284L309.617 203.689L305.952 204.615L308.501 214.698L305.379 215.487ZM313.567 213.417L310.264 200.348L313.386 199.559L314.537 204.116C314.821 203.769 315.202 203.453 315.68 203.167C316.154 202.868 316.689 202.644 317.284 202.493C318.512 202.183 319.484 202.247 320.199 202.685C320.928 203.119 321.444 203.938 321.748 205.14L323.224 210.976L320.102 211.765L318.68 206.142C318.546 205.612 318.342 205.265 318.066 205.101C317.791 204.937 317.369 204.927 316.8 205.07C316.464 205.155 316.141 205.319 315.832 205.563C315.522 205.806 315.28 206.074 315.106 206.365L316.689 212.628L313.567 213.417ZM328.309 209.897C327.223 210.172 326.299 210.082 325.538 209.628C324.774 209.161 324.243 208.339 323.946 207.163L322.485 201.385L325.607 200.596L327.023 206.199C327.154 206.716 327.373 207.067 327.681 207.25C327.998 207.418 328.409 207.438 328.913 207.31C329.288 207.215 329.624 207.048 329.921 206.808C330.218 206.568 330.447 206.304 330.608 206.015L329.019 199.733L332.141 198.944L334.465 208.135L331.556 208.87L331.263 208.119C330.96 208.498 330.566 208.845 330.082 209.16C329.598 209.475 329.007 209.721 328.309 209.897Z" fill="white"/>
<path d="M360.66 201.513L357.504 189.026L366.578 186.732L367.186 189.136L361.233 190.641L361.895 193.259L367.13 191.935L367.748 194.378L362.513 195.702L363.782 200.724L360.66 201.513ZM370.658 198.986L368.335 189.795L371.302 189.045L371.614 189.873C371.953 189.526 372.395 189.181 372.941 188.837C373.483 188.48 374.045 188.2 374.627 187.998L375.22 190.344C374.893 190.468 374.535 190.627 374.144 190.822C373.763 191.001 373.4 191.196 373.054 191.407C372.722 191.615 372.442 191.816 372.217 192.011L373.78 198.196L370.658 198.986ZM376.105 186.283L375.512 183.937L378.906 183.079L379.499 185.425L376.105 186.283ZM379.048 196.865L377.308 189.981L375.951 190.324L375.639 187.948L379.847 186.885L382.17 196.076L379.048 196.865Z" fill="white"/>
<path d="M418.977 186.978C418.149 187.187 417.358 187.318 416.601 187.372C415.861 187.435 415.202 187.416 414.627 187.314L413.955 184.658C414.586 184.759 415.264 184.801 415.988 184.783C416.725 184.762 417.404 184.673 418.024 184.516C418.8 184.32 419.357 184.103 419.696 183.867C420.048 183.626 420.164 183.267 420.043 182.789C419.961 182.466 419.799 182.232 419.556 182.087C419.326 181.939 418.98 181.847 418.517 181.813C418.064 181.762 417.45 181.725 416.673 181.701C415.755 181.658 415.004 181.546 414.422 181.363C413.836 181.167 413.376 180.871 413.042 180.474C412.708 180.077 412.457 179.549 412.291 178.89C411.99 177.7 412.186 176.681 412.879 175.832C413.572 174.983 414.753 174.348 416.42 173.926C417.144 173.743 417.863 173.623 418.578 173.566C419.289 173.497 419.876 173.479 420.339 173.513L421.015 176.189C420.404 176.11 419.8 176.091 419.205 176.131C418.623 176.168 418.067 176.254 417.538 176.387C416.839 176.564 416.287 176.772 415.88 177.013C415.486 177.25 415.348 177.601 415.466 178.066C415.534 178.338 415.668 178.538 415.865 178.667C416.059 178.783 416.36 178.858 416.768 178.892C417.188 178.924 417.751 178.946 418.456 178.961C419.546 178.974 420.411 179.106 421.052 179.357C421.69 179.594 422.176 179.939 422.51 180.391C422.841 180.83 423.085 181.36 423.242 181.98C423.52 183.079 423.319 184.079 422.639 184.979C421.955 185.867 420.735 186.533 418.977 186.978ZM428.823 184.489C427.737 184.763 426.814 184.673 426.053 184.219C425.288 183.753 424.757 182.931 424.46 181.755L422.999 175.976L426.121 175.187L427.538 180.791C427.668 181.308 427.888 181.658 428.195 181.842C428.513 182.009 428.923 182.029 429.428 181.902C429.802 181.807 430.138 181.639 430.435 181.399C430.732 181.159 430.961 180.895 431.122 180.607L429.534 174.325L432.656 173.535L434.979 182.726L432.07 183.462L431.777 182.71C431.474 183.09 431.081 183.437 430.597 183.752C430.112 184.067 429.521 184.312 428.823 184.489ZM436.956 182.227L434.633 173.036L437.541 172.3L437.839 173.071C438.149 172.718 438.563 172.372 439.083 172.034C439.6 171.684 440.181 171.427 440.827 171.263C442.017 170.963 442.955 171.028 443.641 171.46C444.328 171.891 444.822 172.702 445.122 173.891L446.612 179.786L443.49 180.575L442.064 174.932C441.933 174.415 441.73 174.075 441.455 173.91C441.18 173.746 440.758 173.736 440.189 173.88C439.853 173.965 439.53 174.129 439.22 174.372C438.91 174.615 438.668 174.883 438.495 175.174L440.078 181.437L436.956 182.227Z" fill="white"/>
<path d="M354.576 153.653L353.841 150.745C354.173 149.12 354.738 147.602 355.536 146.19C356.361 144.772 357.272 143.317 358.271 141.827C359.185 140.441 359.91 139.336 360.445 138.513C360.979 137.69 361.314 136.946 361.448 136.279C361.608 135.606 361.583 134.856 361.374 134.029C360.838 131.909 359.2 131.195 356.459 131.888C355.399 132.156 354.385 132.55 353.416 133.07C352.441 133.564 351.534 134.109 350.695 134.707L349.332 129.316C350.249 128.699 351.35 128.105 352.635 127.532C353.947 126.953 355.275 126.494 356.619 126.154C359.541 125.415 361.95 125.59 363.848 126.678C365.746 127.766 367.031 129.642 367.705 132.305C368.084 133.804 368.065 135.198 367.648 136.486C367.224 137.748 366.468 139.164 365.379 140.732C364.567 141.872 363.842 142.922 363.204 143.881C362.586 144.807 362.097 145.756 361.737 146.727L371.006 144.384L372.221 149.193L354.576 153.653ZM386.382 146.356C383.59 147.062 381.213 147.126 379.252 146.549C377.291 145.972 375.677 144.812 374.411 143.069C373.165 141.294 372.192 139.023 371.493 136.257C370.793 133.49 370.574 131.043 370.833 128.914C371.119 126.779 371.987 124.992 373.439 123.552C374.883 122.087 377.002 121.001 379.794 120.295C382.612 119.583 384.992 119.532 386.934 120.141C388.895 120.718 390.509 121.878 391.774 123.621C393.04 125.364 394.023 127.618 394.722 130.385C395.421 133.151 395.632 135.615 395.353 137.776C395.067 139.911 394.199 141.698 392.747 143.138C391.322 144.571 389.2 145.643 386.382 146.356ZM385.029 141.004C386.994 140.507 388.188 139.518 388.611 138.036C389.053 136.521 388.957 134.51 388.323 132.002C387.689 129.494 386.821 127.692 385.719 126.596C384.636 125.467 383.112 125.15 381.147 125.647C379.182 126.144 377.979 127.149 377.536 128.664C377.113 130.146 377.219 132.141 377.853 134.649C378.487 137.157 379.345 138.975 380.428 140.104C381.531 141.201 383.064 141.501 385.029 141.004ZM400.249 142.108L399.514 139.199C399.846 137.575 400.411 136.057 401.209 134.645C402.033 133.226 402.945 131.772 403.943 130.282C404.858 128.895 405.583 127.791 406.117 126.968C406.652 126.145 406.986 125.4 407.121 124.734C407.28 124.061 407.256 123.311 407.047 122.483C406.511 120.363 404.873 119.65 402.132 120.342C401.072 120.61 400.058 121.004 399.089 121.524C398.114 122.018 397.206 122.564 396.367 123.161L395.005 117.771C395.921 117.154 397.023 116.559 398.308 115.987C399.62 115.408 400.947 114.948 402.292 114.608C405.213 113.87 407.623 114.045 409.521 115.133C411.419 116.221 412.704 118.096 413.377 120.759C413.756 122.259 413.737 123.653 413.32 124.941C412.897 126.203 412.141 127.618 411.052 129.186C410.24 130.327 409.515 131.376 408.877 132.335C408.259 133.262 407.77 134.21 407.41 135.182L416.678 132.839L417.894 137.647L400.249 142.108ZM420.283 137.043L419.548 134.135C419.88 132.511 420.445 130.993 421.243 129.581C422.067 128.162 422.979 126.708 423.977 125.217C424.892 123.831 425.617 122.726 426.151 121.904C426.686 121.081 427.02 120.336 427.154 119.67C427.314 118.997 427.29 118.246 427.081 117.419C426.545 115.299 424.907 114.585 422.166 115.278C421.106 115.546 420.092 115.94 419.123 116.46C418.148 116.954 417.24 117.5 416.401 118.097L415.039 112.707C415.955 112.09 417.056 111.495 418.342 110.923C419.653 110.343 420.981 109.884 422.326 109.544C425.247 108.806 427.657 108.98 429.555 110.069C431.453 111.157 432.738 113.032 433.411 115.695C433.79 117.194 433.771 118.588 433.354 119.876C432.931 121.139 432.174 122.554 431.086 124.122C430.274 125.262 429.549 126.312 428.911 127.271C428.292 128.197 427.803 129.146 427.444 130.117L436.712 127.774L437.928 132.583L420.283 137.043Z" fill="white"/>
<ellipse cx="48.9282" cy="133.887" rx="13.875" ry="13.9806" transform="rotate(-14.1863 48.9282 133.887)" fill="#6D221B"/>
<ellipse cx="106.323" cy="119.379" rx="13.875" ry="13.9806" transform="rotate(-14.1863 106.323 119.379)" fill="#6D221B"/>
<ellipse cx="163.718" cy="104.87" rx="13.875" ry="13.9806" transform="rotate(-14.1863 163.718 104.87)" fill="#6D221B"/>
<ellipse cx="227.39" cy="88.7751" rx="13.875" ry="13.9806" transform="rotate(-14.1863 227.39 88.7751)" fill="#6D221B"/>
<ellipse cx="286.578" cy="73.8133" rx="13.875" ry="13.9806" transform="rotate(-14.1863 286.578 73.8133)" fill="#6D221B"/>
<ellipse cx="343.973" cy="59.3048" rx="13.875" ry="13.9806" transform="rotate(-14.1863 343.973 59.3048)" fill="#6D221B"/>
<ellipse cx="399.574" cy="45.2497" rx="13.875" ry="13.9806" transform="rotate(-14.1863 399.574 45.2497)" fill="#6D221B"/>
<line x1="189.377" y1="505.769" x2="132.029" y2="278.905" stroke="#999999"/>
<line x1="245.177" y1="491.673" x2="187.825" y2="264.792" stroke="#999999"/>
<line x1="298.93" y1="478.076" x2="241.828" y2="252.181" stroke="#999999"/>
<line x1="353.274" y1="464.338" x2="296.171" y2="238.444" stroke="#999999"/>
<line x1="408.537" y1="450.373" x2="351.434" y2="224.478" stroke="#999999"/>
<line x1="408.583" y1="210.028" x2="465.685" y2="435.923" stroke="#999999"/>
<line x1="92.2927" y1="347.743" x2="473.309" y2="251.428" stroke="#999999"/>
<path d="M106.261 403.005L487.277 306.69" stroke="#999999"/>
<path d="M120.354 458.751L501.37 362.436" stroke="#999999"/>
<rect x="78.2211" y="292.507" width="393" height="1" transform="rotate(-14.1863 78.2211 292.507)" fill="#999999"/>
<rect x="129" y="69.1914" width="461.935" height="463.556" rx="20" transform="rotate(-8.48909 129 69.1914)" fill="#98E078"/>
<rect x="181.907" y="206.89" width="393" height="283" rx="12" transform="rotate(-8.48909 181.907 206.89)" fill="white"/>
<path d="M183.236 215.791C182.257 209.236 186.778 203.13 193.333 202.151L558.29 147.679C564.845 146.701 570.952 151.221 571.93 157.776L577.983 198.327L189.288 256.342L183.236 215.791Z" fill="#DCF4D2"/>
<path d="M192.272 161.37C191.191 161.531 190.137 161.607 189.111 161.599C188.116 161.612 187.172 161.524 186.281 161.334L185.484 155.993C186.156 156.162 186.9 156.267 187.715 156.307C188.526 156.321 189.34 156.267 190.157 156.144C191.714 155.912 192.763 155.446 193.305 154.744C193.87 154.013 194.044 152.922 193.828 151.471L191.377 135.053L197.747 134.103L200.374 151.708C200.772 154.371 200.286 156.534 198.916 158.194C197.546 159.854 195.331 160.913 192.272 161.37ZM211.911 158.438C209.695 158.769 207.875 158.407 206.451 157.353C205.022 156.272 204.129 154.531 203.77 152.131L202.011 140.342L208.38 139.391L210.087 150.824C210.244 151.879 210.611 152.62 211.187 153.046C211.785 153.442 212.599 153.563 213.627 153.41C214.392 153.296 215.094 153.029 215.732 152.61C216.371 152.192 216.879 151.711 217.256 151.17L215.343 138.352L221.712 137.401L224.511 156.153L218.577 157.039L218.143 155.486C217.465 156.18 216.613 156.793 215.586 157.324C214.56 157.854 213.335 158.226 211.911 158.438ZM228.545 155.551L225.746 136.799L231.68 135.913L232.12 137.506C232.807 136.864 233.7 136.259 234.802 135.69C235.899 135.095 237.107 134.699 238.426 134.502C240.853 134.14 242.706 134.456 243.987 135.451C245.268 136.447 246.09 138.157 246.452 140.584L248.247 152.611L241.877 153.561L240.159 142.049C240.002 140.994 239.665 140.276 239.15 139.894C238.635 139.513 237.797 139.409 236.636 139.582C235.951 139.684 235.275 139.947 234.61 140.369C233.946 140.792 233.411 141.276 233.007 141.822L234.915 154.6L228.545 155.551ZM261.949 150.97C258.679 151.458 255.935 151.045 253.716 149.732C251.494 148.392 250.139 146.086 249.651 142.816C249.206 139.836 249.67 137.34 251.041 135.329C252.412 133.318 254.733 132.068 258.004 131.58C260.984 131.135 263.406 131.555 265.27 132.841C267.133 134.127 268.258 136.062 268.644 138.647L269.146 142.009L255.853 143.993C256.328 145.19 257.13 145.96 258.26 146.303C259.412 146.617 260.912 146.635 262.758 146.36C263.786 146.206 264.814 145.959 265.842 145.617C266.896 145.27 267.757 144.899 268.426 144.503L269.046 148.657C268.212 149.213 267.189 149.675 265.977 150.045C264.769 150.441 263.426 150.749 261.949 150.97ZM255.304 140.314L263.058 139.157L262.934 138.326C262.796 137.403 262.411 136.719 261.778 136.274C261.142 135.803 260.164 135.666 258.845 135.862C257.316 136.091 256.295 136.567 255.783 137.29C255.266 137.987 255.107 138.995 255.304 140.314Z" fill="white"/>
<path d="M201.32 234.527C200.476 234.653 199.675 234.705 198.917 234.683C198.174 234.673 197.521 234.588 196.958 234.43L196.553 231.72C197.171 231.884 197.841 231.993 198.564 232.047C199.299 232.098 199.984 232.077 200.617 231.983C201.408 231.865 201.984 231.705 202.345 231.502C202.719 231.298 202.869 230.952 202.796 230.464C202.747 230.135 202.609 229.886 202.382 229.717C202.167 229.547 201.832 229.422 201.375 229.342C200.93 229.247 200.322 229.149 199.552 229.048C198.642 228.914 197.906 228.727 197.345 228.487C196.781 228.235 196.353 227.894 196.06 227.466C195.767 227.038 195.57 226.488 195.47 225.815C195.289 224.602 195.585 223.607 196.359 222.831C197.133 222.055 198.371 221.54 200.072 221.286C200.81 221.176 201.538 221.128 202.254 221.142C202.969 221.143 203.555 221.184 204.012 221.264L204.419 223.994C203.819 223.854 203.22 223.775 202.624 223.756C202.042 223.735 201.48 223.765 200.939 223.846C200.227 223.952 199.657 224.105 199.228 224.304C198.812 224.5 198.64 224.836 198.711 225.311C198.752 225.588 198.865 225.8 199.049 225.948C199.231 226.083 199.523 226.187 199.925 226.262C200.34 226.335 200.898 226.414 201.598 226.498C202.681 226.619 203.529 226.836 204.142 227.149C204.753 227.449 205.202 227.84 205.49 228.323C205.776 228.793 205.966 229.344 206.06 229.977C206.228 231.098 205.928 232.073 205.162 232.902C204.394 233.717 203.113 234.259 201.32 234.527ZM211.365 233.028C210.257 233.193 209.347 233.012 208.635 232.485C207.92 231.944 207.474 231.074 207.295 229.874L206.415 223.979L209.6 223.504L210.453 229.22C210.532 229.748 210.715 230.118 211.003 230.331C211.302 230.529 211.709 230.59 212.223 230.513C212.605 230.456 212.956 230.323 213.276 230.114C213.595 229.904 213.849 229.664 214.038 229.393L213.081 222.984L216.266 222.509L217.665 231.885L214.698 232.328L214.481 231.551C214.142 231.899 213.716 232.205 213.203 232.47C212.69 232.735 212.077 232.921 211.365 233.028ZM219.682 231.584L218.283 222.208L221.25 221.765L221.47 222.561C221.813 222.24 222.26 221.938 222.81 221.653C223.359 221.356 223.963 221.158 224.623 221.059C225.836 220.878 226.763 221.036 227.403 221.534C228.044 222.032 228.454 222.887 228.635 224.1L229.533 230.114L226.348 230.589L225.489 224.833C225.41 224.305 225.242 223.946 224.984 223.755C224.727 223.565 224.308 223.513 223.728 223.599C223.385 223.65 223.047 223.782 222.715 223.993C222.382 224.204 222.115 224.447 221.913 224.719L222.867 231.109L219.682 231.584Z" fill="white"/>
<path d="M252.622 226.667L250.721 213.929L253.866 213.459L258.382 220.004L260.77 212.429L263.895 211.962L265.796 224.701L262.612 225.176L261.519 217.858L259.775 223.376L258.014 223.638L254.715 218.873L255.807 226.192L252.622 226.667ZM272.721 223.87C270.914 224.139 269.52 223.923 268.539 223.22C267.556 222.504 266.946 221.355 266.71 219.772C266.476 218.203 266.725 216.932 267.456 215.96C268.2 214.986 269.469 214.366 271.262 214.098C273.069 213.828 274.464 214.052 275.447 214.768C276.444 215.482 277.059 216.623 277.293 218.193C277.529 219.775 277.282 221.052 276.55 222.024C275.817 222.983 274.541 223.598 272.721 223.87ZM272.349 221.377C273.087 221.267 273.587 221.004 273.849 220.587C274.11 220.171 274.177 219.534 274.049 218.677C273.921 217.82 273.671 217.23 273.3 216.908C272.928 216.586 272.373 216.48 271.634 216.59C270.909 216.699 270.416 216.961 270.154 217.378C269.893 217.794 269.826 218.431 269.954 219.288C270.082 220.145 270.332 220.735 270.704 221.057C271.075 221.379 271.624 221.486 272.349 221.377ZM279.608 222.64L278.209 213.263L281.176 212.821L281.396 213.617C281.739 213.296 282.186 212.993 282.737 212.709C283.285 212.411 283.89 212.213 284.549 212.115C285.762 211.934 286.689 212.092 287.329 212.59C287.97 213.087 288.381 213.943 288.562 215.156L289.459 221.169L286.275 221.645L285.415 215.888C285.337 215.361 285.169 215.002 284.911 214.811C284.653 214.62 284.234 214.568 283.654 214.655C283.311 214.706 282.974 214.837 282.641 215.049C282.309 215.26 282.041 215.502 281.84 215.775L282.793 222.164L279.608 222.64Z" fill="white"/>
<path d="M314.912 217.37L313.377 207.084L309.638 207.642L309.272 205.189L319.934 203.598L320.3 206.051L316.562 206.609L318.097 216.895L314.912 217.37ZM325.225 216.033C324.117 216.199 323.207 216.018 322.495 215.49C321.781 214.95 321.334 214.08 321.155 212.88L320.275 206.985L323.46 206.509L324.313 212.226C324.392 212.754 324.575 213.124 324.863 213.337C325.162 213.535 325.569 213.596 326.083 213.519C326.466 213.462 326.816 213.329 327.136 213.119C327.455 212.91 327.709 212.67 327.898 212.399L326.941 205.99L330.126 205.514L331.525 214.891L328.558 215.333L328.341 214.557C328.002 214.904 327.576 215.21 327.063 215.476C326.55 215.741 325.937 215.927 325.225 216.033ZM338.596 214.037C336.961 214.282 335.589 214.075 334.479 213.418C333.368 212.748 332.691 211.596 332.447 209.961C332.224 208.47 332.456 207.223 333.142 206.217C333.827 205.211 334.988 204.587 336.623 204.343C338.113 204.12 339.324 204.33 340.256 204.973C341.188 205.616 341.75 206.584 341.943 207.876L342.194 209.557L335.548 210.549C335.785 211.147 336.186 211.532 336.751 211.704C337.327 211.861 338.077 211.87 339 211.733C339.514 211.656 340.028 211.532 340.542 211.361C341.069 211.188 341.5 211.002 341.834 210.804L342.144 212.881C341.727 213.159 341.216 213.39 340.61 213.575C340.006 213.773 339.334 213.927 338.596 214.037ZM335.273 208.71L339.15 208.131L339.088 207.716C339.019 207.254 338.827 206.912 338.51 206.69C338.192 206.454 337.703 206.385 337.044 206.484C336.279 206.598 335.769 206.836 335.513 207.198C335.254 207.546 335.175 208.05 335.273 208.71Z" fill="white"/>
<path d="M365.966 209.75L361.098 197.454L364.223 196.988L367.05 204.412L367.914 198.277L367.645 196.477L370.256 196.087L373.6 203.454L374.212 195.497L377.338 195.03L376.292 208.209L373.344 208.649L370.11 201.609L368.914 209.31L365.966 209.75ZM384.617 207.169C382.982 207.413 381.61 207.206 380.501 206.549C379.39 205.879 378.712 204.727 378.468 203.092C378.245 201.601 378.477 200.354 379.163 199.348C379.849 198.342 381.009 197.718 382.644 197.474C384.134 197.251 385.345 197.461 386.277 198.104C387.209 198.747 387.771 199.715 387.964 201.007L388.215 202.688L381.569 203.68C381.806 204.278 382.208 204.663 382.772 204.835C383.349 204.992 384.098 205.001 385.021 204.864C385.536 204.787 386.05 204.663 386.563 204.492C387.09 204.319 387.521 204.133 387.855 203.935L388.165 206.012C387.748 206.29 387.237 206.521 386.631 206.706C386.027 206.904 385.356 207.058 384.617 207.169ZM381.294 201.841L385.171 201.262L385.109 200.847C385.04 200.385 384.848 200.043 384.531 199.821C384.213 199.585 383.724 199.517 383.065 199.615C382.3 199.729 381.79 199.967 381.534 200.329C381.276 200.677 381.196 201.181 381.294 201.841ZM394.347 205.716C393.437 205.852 392.637 205.823 391.948 205.63C391.258 205.436 390.693 205.035 390.252 204.427C389.808 203.805 389.503 202.934 389.336 201.813C389.166 200.679 389.223 199.7 389.504 198.876C389.784 198.039 390.237 197.372 390.863 196.874C391.501 196.361 392.269 196.037 393.165 195.903C393.653 195.83 394.096 195.818 394.494 195.867C394.906 195.913 395.299 196.016 395.673 196.176L395.018 191.785L398.202 191.309L400.192 204.642L397.443 205.052L397.147 204.287C396.813 204.674 396.422 204.989 395.973 205.231C395.522 205.46 394.98 205.622 394.347 205.716ZM394.911 203.266C395.61 203.162 396.168 202.836 396.585 202.288L396.018 198.49C395.509 198.149 394.905 198.03 394.206 198.134C393.533 198.234 393.057 198.568 392.778 199.136C392.51 199.688 392.445 200.426 392.583 201.349C392.717 202.246 392.97 202.814 393.343 203.055C393.729 203.294 394.252 203.365 394.911 203.266Z" fill="white"/>
<path d="M422.718 201.28L421.182 190.994L417.444 191.552L417.078 189.099L427.739 187.507L428.106 189.96L424.367 190.518L425.902 200.804L422.718 201.28ZM431.071 200.033L429.081 186.701L432.266 186.225L432.959 190.874C433.276 190.557 433.686 190.28 434.19 190.043C434.692 189.793 435.246 189.622 435.853 189.532C437.106 189.345 438.067 189.505 438.735 190.012C439.417 190.516 439.85 191.382 440.033 192.608L440.922 198.563L437.737 199.038L436.881 193.301C436.8 192.761 436.631 192.395 436.373 192.204C436.116 192.014 435.697 191.962 435.116 192.048C434.774 192.099 434.436 192.231 434.103 192.442C433.771 192.653 433.504 192.895 433.302 193.168L434.255 199.557L431.071 200.033ZM446.089 197.994C444.981 198.159 444.071 197.978 443.359 197.451C442.644 196.91 442.198 196.04 442.019 194.84L441.139 188.945L444.324 188.47L445.177 194.186C445.256 194.714 445.439 195.084 445.727 195.297C446.026 195.495 446.433 195.556 446.947 195.479C447.329 195.422 447.68 195.289 448 195.08C448.319 194.87 448.573 194.63 448.762 194.359L447.805 187.95L450.99 187.475L452.389 196.851L449.422 197.294L449.205 196.517C448.866 196.865 448.44 197.171 447.927 197.436C447.414 197.701 446.801 197.887 446.089 197.994Z" fill="white"/>
<path d="M479.113 192.862L477.211 180.123L486.469 178.742L486.835 181.194L480.762 182.101L481.161 184.771L486.502 183.974L486.874 186.467L481.533 187.264L482.298 192.387L479.113 192.862ZM489.312 191.34L487.913 181.964L490.939 181.512L491.168 182.368C491.54 182.056 492.014 181.756 492.591 181.468C493.166 181.166 493.753 180.944 494.352 180.801L494.709 183.194C494.372 183.285 493.999 183.408 493.591 183.563C493.194 183.703 492.813 183.861 492.449 184.037C492.097 184.211 491.799 184.383 491.555 184.554L492.497 190.865L489.312 191.34ZM495.993 179.241L495.636 176.848L499.098 176.331L499.455 178.724L495.993 179.241ZM497.871 190.062L496.823 183.04L495.439 183.247L495.364 180.852L499.657 180.211L501.056 189.587L497.871 190.062Z" fill="white"/>
<path d="M538.584 184.188C537.74 184.314 536.939 184.366 536.181 184.344C535.438 184.334 534.785 184.25 534.222 184.091L533.818 181.381C534.435 181.545 535.105 181.654 535.828 181.708C536.564 181.76 537.248 181.738 537.881 181.644C538.672 181.526 539.248 181.366 539.609 181.164C539.983 180.959 540.133 180.613 540.061 180.126C540.011 179.796 539.873 179.547 539.646 179.379C539.432 179.208 539.096 179.083 538.639 179.003C538.194 178.908 537.586 178.81 536.816 178.709C535.906 178.575 535.171 178.388 534.609 178.149C534.046 177.896 533.617 177.555 533.324 177.127C533.031 176.699 532.834 176.149 532.734 175.476C532.553 174.263 532.849 173.268 533.623 172.492C534.397 171.716 535.635 171.201 537.336 170.947C538.074 170.837 538.802 170.789 539.519 170.803C540.233 170.805 540.819 170.845 541.276 170.925L541.683 173.655C541.083 173.516 540.484 173.436 539.888 173.417C539.306 173.397 538.744 173.427 538.203 173.507C537.491 173.613 536.921 173.766 536.492 173.965C536.077 174.162 535.904 174.497 535.975 174.972C536.016 175.249 536.129 175.461 536.313 175.609C536.495 175.744 536.787 175.849 537.189 175.923C537.604 175.996 538.162 176.075 538.862 176.159C539.945 176.28 540.793 176.498 541.406 176.811C542.017 177.11 542.466 177.502 542.754 177.984C543.04 178.454 543.23 179.005 543.324 179.638C543.492 180.759 543.192 181.734 542.426 182.563C541.658 183.379 540.378 183.92 538.584 184.188ZM548.629 182.689C547.521 182.854 546.611 182.673 545.899 182.146C545.185 181.605 544.738 180.735 544.559 179.535L543.679 173.64L546.864 173.165L547.717 178.882C547.796 179.409 547.979 179.779 548.267 179.993C548.566 180.191 548.973 180.251 549.487 180.175C549.87 180.117 550.22 179.984 550.54 179.775C550.859 179.565 551.113 179.325 551.302 179.054L550.345 172.645L553.53 172.17L554.929 181.546L551.962 181.989L551.745 181.213C551.406 181.56 550.98 181.866 550.467 182.131C549.954 182.397 549.341 182.582 548.629 182.689ZM556.946 181.245L555.547 171.869L558.514 171.426L558.734 172.222C559.077 171.902 559.524 171.599 560.074 171.315C560.623 171.017 561.227 170.819 561.887 170.721C563.1 170.539 564.027 170.698 564.667 171.195C565.308 171.693 565.718 172.548 565.9 173.761L566.797 179.775L563.612 180.25L562.753 174.494C562.674 173.966 562.506 173.607 562.249 173.417C561.991 173.226 561.572 173.174 560.992 173.26C560.649 173.312 560.311 173.443 559.979 173.654C559.646 173.866 559.379 174.108 559.177 174.381L560.131 180.77L556.946 181.245Z" fill="white"/>
<path d="M477.81 144.635L477.367 141.668C477.859 140.084 478.572 138.63 479.506 137.304C480.467 135.974 481.518 134.618 482.66 133.234C483.708 131.945 484.539 130.918 485.152 130.152C485.766 129.387 486.173 128.679 486.372 128.029C486.598 127.375 486.648 126.626 486.522 125.782C486.199 123.619 484.64 122.747 481.844 123.164C480.763 123.325 479.715 123.617 478.699 124.038C477.679 124.433 476.722 124.886 475.828 125.397L475.007 119.898C475.981 119.375 477.136 118.892 478.472 118.45C479.834 118.004 481.201 117.679 482.572 117.474C485.553 117.029 487.933 117.443 489.714 118.714C491.494 119.985 492.587 121.979 492.993 124.695C493.221 126.225 493.064 127.61 492.521 128.85C491.974 130.064 491.081 131.397 489.842 132.85C488.921 133.904 488.095 134.876 487.365 135.767C486.658 136.628 486.077 137.523 485.623 138.454L495.078 137.043L495.81 141.948L477.81 144.635ZM510.183 140.531C507.334 140.956 504.963 140.784 503.069 140.016C501.174 139.247 499.684 137.932 498.598 136.072C497.534 134.182 496.791 131.826 496.37 129.004C495.948 126.182 495.973 123.725 496.442 121.632C496.938 119.536 497.98 117.844 499.567 116.555C501.15 115.241 503.366 114.371 506.215 113.945C509.089 113.516 511.463 113.701 513.335 114.501C515.229 115.269 516.719 116.584 517.806 118.444C518.892 120.304 519.646 122.645 520.067 125.467C520.488 128.289 520.453 130.761 519.961 132.884C519.465 134.98 518.423 136.672 516.836 137.961C515.275 139.245 513.057 140.102 510.183 140.531ZM509.368 135.071C511.372 134.772 512.659 133.906 513.227 132.473C513.817 131.01 513.921 128.999 513.539 126.441C513.158 123.883 512.473 122.003 511.485 120.803C510.519 119.572 509.034 119.106 507.029 119.405C505.025 119.704 503.728 120.585 503.137 122.049C502.569 123.481 502.476 125.477 502.858 128.035C503.24 130.594 503.913 132.488 504.879 133.719C505.867 134.92 507.363 135.371 509.368 135.071ZM524.403 137.681L523.96 134.713C524.452 133.13 525.165 131.676 526.099 130.35C527.06 129.02 528.112 127.663 529.253 126.28C530.301 124.991 531.132 123.964 531.746 123.198C532.359 122.432 532.766 121.725 532.965 121.075C533.191 120.421 533.241 119.672 533.115 118.828C532.793 116.665 531.233 115.792 528.438 116.21C527.356 116.371 526.308 116.662 525.292 117.084C524.273 117.478 523.316 117.931 522.421 118.442L521.601 112.943C522.574 112.42 523.729 111.938 525.065 111.496C526.427 111.05 527.794 110.725 529.166 110.52C532.146 110.075 534.526 110.488 536.307 111.759C538.087 113.03 539.18 115.024 539.586 117.741C539.814 119.27 539.657 120.656 539.114 121.896C538.567 123.11 537.674 124.443 536.435 125.895C535.514 126.949 534.688 127.922 533.959 128.813C533.251 129.673 532.67 130.569 532.216 131.499L541.671 130.088L542.404 134.994L524.403 137.681ZM544.841 134.63L544.398 131.663C544.889 130.08 545.603 128.625 546.537 127.299C547.498 125.97 548.549 124.613 549.691 123.229C550.739 121.94 551.569 120.913 552.183 120.148C552.797 119.382 553.204 118.674 553.403 118.024C553.629 117.37 553.679 116.621 553.553 115.777C553.23 113.615 551.671 112.742 548.875 113.159C547.794 113.321 546.745 113.612 545.73 114.033C544.71 114.428 543.753 114.881 542.859 115.392L542.038 109.893C543.012 109.37 544.166 108.888 545.503 108.446C546.865 107.999 548.232 107.674 549.603 107.469C552.584 107.025 554.964 107.438 556.745 108.709C558.525 109.98 559.618 111.974 560.023 114.69C560.252 116.22 560.095 117.605 559.552 118.845C559.005 120.06 558.112 121.393 556.873 122.845C555.952 123.899 555.126 124.871 554.396 125.762C553.689 126.623 553.108 127.518 552.654 128.449L562.109 127.038L562.841 131.943L544.841 134.63Z" fill="white"/>
<ellipse cx="175.634" cy="94.6248" rx="13.875" ry="13.9806" transform="rotate(-8.48909 175.634 94.6248)" fill="#499C24"/>
<ellipse cx="234.186" cy="85.8857" rx="13.875" ry="13.9806" transform="rotate(-8.48909 234.186 85.8857)" fill="#499C24"/>
<ellipse cx="292.737" cy="77.1464" rx="13.875" ry="13.9806" transform="rotate(-8.48909 292.737 77.1464)" fill="#499C24"/>
<ellipse cx="357.692" cy="67.4515" rx="13.875" ry="13.9806" transform="rotate(-8.48909 357.692 67.4515)" fill="#499C24"/>
<ellipse cx="418.073" cy="58.4392" rx="13.875" ry="13.9806" transform="rotate(-8.48909 418.073 58.4392)" fill="#499C24"/>
<ellipse cx="476.625" cy="49.7" rx="13.875" ry="13.9806" transform="rotate(-8.48909 476.625 49.7)" fill="#499C24"/>
<ellipse cx="533.347" cy="41.2339" rx="13.875" ry="13.9806" transform="rotate(-8.48909 533.347 41.2339)" fill="#499C24"/>
<line x1="278.472" y1="478.612" x2="243.928" y2="247.176" stroke="#999999"/>
<line x1="335.395" y1="470.125" x2="300.849" y2="238.671" stroke="#999999"/>
<line x1="390.233" y1="461.931" x2="355.838" y2="231.484" stroke="#999999"/>
<line x1="445.672" y1="453.656" x2="411.276" y2="223.209" stroke="#999999"/>
<line x1="502.048" y1="445.246" x2="467.652" y2="214.798" stroke="#999999"/>
<line x1="525.953" y1="206.093" x2="560.349" y2="436.54" stroke="#999999"/>
<line x1="197.554" y1="311.729" x2="586.25" y2="253.714" stroke="#999999"/>
<path d="M205.968 368.104L594.663 310.089" stroke="#999999"/>
<path d="M214.457 424.974L603.153 366.959" stroke="#999999"/>
<rect x="189.036" y="255.369" width="393" height="1" transform="rotate(-8.48909 189.036 255.369)" fill="#999999"/>
<rect x="260.925" y="34" width="461.935" height="463.556" rx="20" transform="rotate(2.2161 260.925 34)" fill="#4285F4"/>
<rect x="287.333" y="179.13" width="393" height="283" rx="12" transform="rotate(2.2161 287.333 179.13)" fill="white"/>
<path d="M286.985 188.123C287.241 181.5 292.818 176.34 299.44 176.596L668.164 190.865C674.787 191.121 679.948 196.697 679.691 203.32L678.106 244.289L285.4 229.092L286.985 188.123Z" fill="#679DF6"/>
<path d="M306.893 145.449C305.582 145.399 304.323 145.254 303.115 145.015C301.938 144.809 300.846 144.495 299.837 144.072L300.088 137.596C300.843 137.946 301.696 138.235 302.648 138.464C303.601 138.661 304.573 138.779 305.565 138.817C307.451 138.89 308.792 138.574 309.588 137.868C310.417 137.131 310.866 135.884 310.934 134.125L311.704 114.22L319.427 114.519L318.601 135.863C318.476 139.093 317.42 141.534 315.435 143.186C313.45 144.838 310.602 145.593 306.893 145.449ZM330.703 146.371C328.017 146.267 325.951 145.434 324.507 143.873C323.063 142.28 322.398 140.029 322.51 137.119L323.064 122.826L330.786 123.125L330.249 136.986C330.2 138.265 330.467 139.22 331.051 139.851C331.668 140.452 332.601 140.776 333.848 140.824C334.775 140.86 335.662 140.702 336.508 140.351C337.354 139.999 338.06 139.546 338.626 138.992L339.227 123.451L346.95 123.75L346.07 146.485L338.875 146.207L338.71 144.279C337.755 144.946 336.614 145.479 335.285 145.876C333.957 146.273 332.43 146.438 330.703 146.371ZM357.945 147.425C355.45 147.328 353.681 146.716 352.636 145.586C351.591 144.457 351.114 142.693 351.207 140.295L352.211 114.347L359.934 114.645L358.959 139.827C358.931 140.562 359.055 141.079 359.331 141.378C359.641 141.646 360.1 141.792 360.708 141.816C361.571 141.849 362.343 141.767 363.023 141.569L362.82 146.797C362.074 147.056 361.33 147.236 360.59 147.335C359.882 147.436 359 147.466 357.945 147.425ZM369.013 155.827C367.862 155.783 366.873 155.68 366.047 155.52C365.251 155.393 364.46 155.155 363.672 154.804L363.88 149.432C364.417 149.645 364.907 149.792 365.352 149.873C365.83 149.956 366.308 150.006 366.788 150.025C368.099 150.076 369.083 149.874 369.741 149.419C370.43 148.997 371.133 148.208 371.85 147.05L362.497 124.352L370.603 124.665L376.04 139.335L382.498 125.126L390.556 125.438L381.067 145.966C380.123 148.011 379.094 149.781 377.98 151.275C376.864 152.801 375.586 153.952 374.147 154.729C372.707 155.538 370.995 155.904 369.013 155.827Z" fill="white"/>
<path d="M301.274 209.892C300.422 209.859 299.625 209.761 298.884 209.599C298.156 209.451 297.53 209.246 297.006 208.986L297.112 206.248C297.689 206.524 298.327 206.755 299.027 206.943C299.74 207.13 300.416 207.237 301.056 207.261C301.855 207.292 302.451 207.242 302.843 207.11C303.248 206.979 303.461 206.667 303.48 206.174C303.493 205.841 303.403 205.571 303.211 205.363C303.032 205.156 302.726 204.971 302.292 204.807C301.872 204.631 301.293 204.422 300.555 204.18C299.686 203.879 298.998 203.559 298.49 203.219C297.984 202.866 297.626 202.452 297.418 201.977C297.209 201.502 297.118 200.924 297.144 200.245C297.192 199.019 297.668 198.097 298.572 197.478C299.477 196.859 300.789 196.583 302.507 196.65C303.253 196.678 303.977 196.766 304.679 196.914C305.381 197.048 305.949 197.196 306.383 197.36L306.276 200.118C305.712 199.869 305.139 199.68 304.557 199.551C303.988 199.422 303.43 199.347 302.884 199.326C302.165 199.298 301.576 199.342 301.118 199.458C300.673 199.574 300.441 199.872 300.423 200.352C300.412 200.631 300.483 200.861 300.636 201.04C300.79 201.207 301.057 201.364 301.438 201.512C301.833 201.661 302.366 201.841 303.039 202.054C304.08 202.375 304.873 202.746 305.417 203.167C305.962 203.575 306.331 204.043 306.524 204.571C306.718 205.085 306.802 205.662 306.777 206.302C306.733 207.434 306.258 208.337 305.352 209.009C304.445 209.668 303.086 209.962 301.274 209.892ZM311.423 210.284C310.304 210.241 309.443 209.894 308.841 209.244C308.24 208.58 307.962 207.642 308.009 206.43L308.24 200.474L311.457 200.599L311.234 206.374C311.213 206.907 311.325 207.305 311.568 207.568C311.825 207.818 312.214 207.953 312.733 207.973C313.12 207.988 313.489 207.923 313.842 207.776C314.194 207.63 314.488 207.441 314.724 207.21L314.975 200.735L318.192 200.859L317.826 210.332L314.828 210.216L314.759 209.413C314.361 209.691 313.886 209.913 313.332 210.078C312.779 210.244 312.142 210.312 311.423 210.284ZM319.863 210.411L320.23 200.938L323.228 201.054L323.296 201.877C323.693 201.626 324.188 201.411 324.782 201.234C325.376 201.044 326.007 200.961 326.673 200.987C327.899 201.035 328.78 201.362 329.317 201.97C329.854 202.578 330.099 203.495 330.051 204.721L329.816 210.796L326.598 210.672L326.823 204.856C326.844 204.323 326.746 203.939 326.528 203.704C326.31 203.468 325.908 203.339 325.322 203.317C324.975 203.303 324.619 203.37 324.253 203.516C323.887 203.661 323.58 203.85 323.331 204.08L323.081 210.535L319.863 210.411Z" fill="white"/>
<path d="M353.144 211.699L353.642 198.828L356.819 198.951L360.041 206.221L363.794 199.221L366.952 199.344L366.454 212.214L363.236 212.089L363.522 204.695L360.783 209.793L359.004 209.724L356.647 204.429L356.361 211.823L353.144 211.699ZM373.412 212.683C371.587 212.613 370.258 212.141 369.424 211.268C368.591 210.382 368.205 209.139 368.267 207.541C368.329 205.955 368.809 204.753 369.708 203.934C370.62 203.115 371.982 202.741 373.794 202.811C375.62 202.881 376.949 203.36 377.782 204.246C378.628 205.133 379.021 206.369 378.959 207.954C378.897 209.553 378.417 210.762 377.518 211.581C376.619 212.387 375.251 212.754 373.412 212.683ZM373.51 210.165C374.256 210.194 374.796 210.028 375.13 209.667C375.464 209.307 375.648 208.693 375.682 207.827C375.715 206.961 375.579 206.336 375.274 205.95C374.969 205.565 374.443 205.358 373.697 205.329C372.964 205.3 372.431 205.467 372.096 205.827C371.762 206.188 371.578 206.801 371.545 207.667C371.511 208.533 371.647 209.159 371.953 209.545C372.258 209.93 372.777 210.137 373.51 210.165ZM380.408 212.754L380.775 203.281L383.773 203.397L383.841 204.22C384.238 203.969 384.733 203.754 385.327 203.577C385.921 203.387 386.552 203.304 387.218 203.33C388.444 203.378 389.325 203.705 389.862 204.313C390.399 204.921 390.643 205.838 390.596 207.064L390.361 213.139L387.143 213.015L387.368 207.199C387.389 206.666 387.29 206.282 387.073 206.047C386.855 205.811 386.453 205.682 385.867 205.66C385.52 205.646 385.164 205.713 384.798 205.858C384.432 206.004 384.125 206.193 383.876 206.423L383.626 212.878L380.408 212.754Z" fill="white"/>
<path d="M416.076 214.134L416.479 203.742L412.701 203.596L412.797 201.118L423.569 201.534L423.473 204.013L419.696 203.866L419.294 214.259L416.076 214.134ZM426.458 214.736C425.339 214.693 424.478 214.346 423.876 213.695C423.275 213.032 422.998 212.094 423.045 210.881L423.275 204.926L426.493 205.05L426.269 210.826C426.249 211.359 426.36 211.757 426.603 212.02C426.86 212.27 427.249 212.405 427.768 212.425C428.155 212.44 428.524 212.374 428.877 212.228C429.23 212.081 429.524 211.892 429.76 211.661L430.01 205.186L433.228 205.311L432.861 214.784L429.863 214.668L429.794 213.864C429.397 214.143 428.921 214.364 428.368 214.53C427.814 214.695 427.178 214.764 426.458 214.736ZM439.967 215.259C438.315 215.195 437.005 214.737 436.037 213.886C435.07 213.021 434.618 211.763 434.682 210.111C434.741 208.605 435.2 207.422 436.061 206.561C436.921 205.701 438.178 205.302 439.83 205.366C441.335 205.424 442.486 205.856 443.282 206.661C444.078 207.465 444.451 208.521 444.401 209.826L444.335 211.525L437.62 211.265C437.742 211.897 438.065 212.35 438.588 212.624C439.125 212.884 439.86 213.033 440.793 213.069C441.312 213.089 441.84 213.063 442.377 212.99C442.927 212.918 443.384 212.816 443.75 212.683L443.668 214.782C443.207 214.977 442.662 215.11 442.032 215.179C441.402 215.261 440.713 215.288 439.967 215.259ZM437.692 209.406L441.609 209.558L441.625 209.138C441.643 208.672 441.517 208.3 441.248 208.023C440.979 207.732 440.511 207.574 439.845 207.548C439.073 207.518 438.527 207.657 438.208 207.965C437.89 208.26 437.718 208.74 437.692 209.406Z" fill="white"/>
<path d="M467.657 216.13L465.158 203.144L468.315 203.266L469.714 211.086L471.702 205.218L471.773 203.4L474.411 203.502L476.328 211.362L478.408 203.657L481.565 203.779L478.09 216.534L475.112 216.419L473.241 208.901L470.635 216.245L467.657 216.13ZM486.463 217.058C484.811 216.994 483.501 216.537 482.533 215.685C481.566 214.82 481.114 213.562 481.178 211.91C481.237 210.404 481.696 209.221 482.557 208.361C483.417 207.5 484.674 207.101 486.326 207.165C487.831 207.224 488.982 207.655 489.778 208.46C490.574 209.265 490.947 210.32 490.897 211.625L490.831 213.324L484.116 213.064C484.238 213.696 484.561 214.149 485.084 214.423C485.621 214.684 486.356 214.832 487.289 214.868C487.808 214.888 488.336 214.862 488.873 214.79C489.423 214.717 489.88 214.615 490.246 214.482L490.165 216.581C489.703 216.777 489.158 216.909 488.528 216.978C487.898 217.06 487.209 217.087 486.463 217.058ZM484.188 211.206L488.105 211.357L488.121 210.938C488.139 210.471 488.014 210.1 487.744 209.822C487.475 209.532 487.008 209.373 486.341 209.348C485.569 209.318 485.023 209.457 484.704 209.765C484.386 210.059 484.214 210.54 484.188 211.206ZM496.293 217.439C495.374 217.403 494.594 217.226 493.952 216.908C493.311 216.589 492.83 216.09 492.509 215.411C492.189 214.718 492.051 213.805 492.095 212.673C492.139 211.527 492.376 210.575 492.806 209.818C493.236 209.047 493.805 208.476 494.513 208.103C495.235 207.717 496.049 207.542 496.955 207.577C497.448 207.596 497.886 207.666 498.268 207.788C498.664 207.91 499.031 208.084 499.369 208.311L499.54 203.874L502.758 203.998L502.237 217.468L499.459 217.361L499.31 216.554C498.911 216.873 498.468 217.109 497.981 217.264C497.496 217.405 496.933 217.463 496.293 217.439ZM497.303 215.136C498.009 215.163 498.618 214.947 499.13 214.486L499.278 210.649C498.841 210.218 498.27 209.989 497.563 209.962C496.884 209.936 496.354 210.175 495.974 210.681C495.608 211.174 495.407 211.887 495.371 212.819C495.336 213.725 495.48 214.331 495.801 214.637C496.136 214.944 496.637 215.11 497.303 215.136Z" fill="white"/>
<path d="M524.995 218.349L525.397 207.957L521.62 207.811L521.715 205.332L532.487 205.749L532.391 208.227L528.614 208.081L528.212 218.474L524.995 218.349ZM533.434 218.676L533.955 205.206L537.173 205.33L536.991 210.027C537.361 209.774 537.816 209.578 538.355 209.439C538.895 209.286 539.471 209.222 540.084 209.246C541.349 209.295 542.264 209.63 542.827 210.253C543.403 210.875 543.667 211.806 543.619 213.045L543.387 219.061L540.169 218.936L540.393 213.141C540.414 212.594 540.316 212.204 540.098 211.968C539.881 211.733 539.479 211.604 538.892 211.581C538.546 211.568 538.19 211.634 537.824 211.78C537.458 211.926 537.151 212.114 536.901 212.345L536.652 218.8L533.434 218.676ZM548.569 219.461C547.45 219.418 546.59 219.071 545.988 218.421C545.386 217.757 545.109 216.819 545.156 215.607L545.386 209.651L548.604 209.776L548.381 215.551C548.36 216.084 548.471 216.482 548.715 216.745C548.972 216.995 549.36 217.13 549.88 217.15C550.266 217.165 550.636 217.1 550.988 216.953C551.341 216.807 551.635 216.618 551.871 216.387L552.121 209.912L555.339 210.036L554.972 219.509L551.975 219.393L551.906 218.59C551.508 218.868 551.032 219.09 550.479 219.255C549.925 219.421 549.289 219.489 548.569 219.461Z" fill="white"/>
<path d="M581.972 220.554L582.47 207.684L591.823 208.045L591.727 210.524L585.592 210.286L585.487 212.984L590.883 213.193L590.786 215.711L585.39 215.502L585.189 220.678L581.972 220.554ZM592.277 220.953L592.643 211.48L595.701 211.598L595.767 212.481C596.19 212.244 596.711 212.037 597.332 211.861C597.953 211.672 598.571 211.562 599.186 211.533L599.093 213.951C598.745 213.978 598.356 214.029 597.926 214.106C597.51 214.17 597.106 214.254 596.715 214.359C596.337 214.465 596.013 214.579 595.741 214.702L595.494 221.077L592.277 220.953ZM601.089 210.305L601.182 207.887L604.68 208.023L604.586 210.441L601.089 210.305ZM600.924 221.287L601.199 214.193L599.8 214.138L600.172 211.771L604.508 211.939L604.142 221.412L600.924 221.287Z" fill="white"/>
<path d="M642.019 223.078C641.167 223.045 640.37 222.947 639.629 222.785C638.901 222.637 638.275 222.432 637.751 222.172L637.857 219.434C638.434 219.71 639.072 219.941 639.772 220.129C640.485 220.316 641.161 220.423 641.801 220.447C642.6 220.478 643.196 220.428 643.588 220.296C643.994 220.165 644.206 219.853 644.225 219.36C644.238 219.027 644.148 218.757 643.956 218.549C643.777 218.342 643.471 218.157 643.037 217.993C642.617 217.817 642.038 217.608 641.3 217.366C640.431 217.065 639.743 216.745 639.235 216.405C638.729 216.052 638.371 215.638 638.163 215.163C637.954 214.688 637.863 214.11 637.889 213.431C637.937 212.205 638.413 211.283 639.317 210.664C640.222 210.045 641.534 209.769 643.252 209.836C643.999 209.864 644.722 209.952 645.424 210.1C646.126 210.234 646.694 210.382 647.128 210.546L647.021 213.304C646.457 213.055 645.884 212.866 645.302 212.737C644.733 212.608 644.175 212.533 643.629 212.512C642.91 212.484 642.321 212.528 641.863 212.644C641.418 212.76 641.186 213.058 641.168 213.538C641.157 213.817 641.228 214.047 641.381 214.226C641.535 214.393 641.802 214.55 642.184 214.698C642.578 214.847 643.112 215.027 643.784 215.24C644.826 215.561 645.618 215.932 646.163 216.353C646.707 216.761 647.076 217.229 647.269 217.757C647.463 218.271 647.547 218.848 647.522 219.488C647.479 220.62 647.003 221.523 646.097 222.195C645.19 222.854 643.831 223.148 642.019 223.078ZM652.168 223.47C651.049 223.427 650.188 223.08 649.586 222.43C648.985 221.766 648.708 220.828 648.754 219.616L648.985 213.66L652.203 213.785L651.979 219.56C651.958 220.093 652.07 220.491 652.313 220.754C652.57 221.004 652.959 221.139 653.478 221.159C653.865 221.174 654.234 221.109 654.587 220.962C654.939 220.816 655.234 220.627 655.469 220.396L655.72 213.921L658.937 214.045L658.571 223.518L655.573 223.402L655.504 222.599C655.106 222.877 654.631 223.099 654.077 223.264C653.524 223.43 652.887 223.498 652.168 223.47ZM660.609 223.597L660.975 214.124L663.973 214.24L664.041 215.063C664.438 214.812 664.933 214.597 665.527 214.42C666.122 214.23 666.752 214.147 667.418 214.173C668.644 214.221 669.525 214.548 670.062 215.156C670.599 215.764 670.844 216.681 670.796 217.907L670.561 223.982L667.344 223.858L667.569 218.042C667.589 217.509 667.491 217.125 667.273 216.89C667.055 216.654 666.653 216.525 666.067 216.503C665.721 216.489 665.364 216.556 664.999 216.702C664.633 216.848 664.325 217.036 664.076 217.266L663.826 223.721L660.609 223.597Z" fill="white"/>
<path d="M589.65 172.924L589.766 169.926C590.543 168.462 591.514 167.165 592.679 166.036C593.87 164.908 595.155 163.77 596.534 162.622C597.803 161.551 598.81 160.696 599.555 160.057C600.3 159.419 600.831 158.799 601.148 158.197C601.492 157.597 601.68 156.87 601.713 156.018C601.797 153.833 600.427 152.685 597.603 152.576C596.51 152.534 595.426 152.625 594.35 152.851C593.275 153.049 592.25 153.316 591.277 153.652L591.491 148.096C592.545 147.764 593.769 147.504 595.164 147.318C596.586 147.133 597.99 147.067 599.375 147.121C602.386 147.237 604.648 148.085 606.162 149.665C607.675 151.245 608.379 153.407 608.273 156.151C608.213 157.697 607.801 159.029 607.037 160.147C606.274 161.238 605.149 162.382 603.662 163.579C602.561 164.443 601.569 165.246 600.687 165.985C599.832 166.7 599.095 167.472 598.475 168.302L608.028 168.671L607.836 173.628L589.65 172.924ZM622.222 174.905C619.344 174.793 617.046 174.184 615.327 173.077C613.609 171.97 612.389 170.401 611.667 168.372C610.972 166.317 610.68 163.864 610.791 161.012C610.901 158.161 611.381 155.751 612.231 153.783C613.108 151.815 614.446 150.346 616.245 149.375C618.045 148.377 620.383 147.934 623.261 148.045C626.166 148.157 628.463 148.78 630.154 149.913C631.873 151.02 633.093 152.588 633.815 154.618C634.537 156.647 634.843 159.088 634.733 161.939C634.622 164.79 634.128 167.213 633.25 169.207C632.374 171.175 631.036 172.644 629.237 173.615C627.465 174.587 625.126 175.017 622.222 174.905ZM622.435 169.389C624.461 169.467 625.885 168.855 626.71 167.553C627.562 166.225 628.038 164.268 628.138 161.684C628.238 159.099 627.914 157.125 627.166 155.762C626.446 154.373 625.073 153.639 623.048 153.561C621.023 153.482 619.584 154.107 618.732 155.435C617.908 156.738 617.446 158.681 617.346 161.266C617.246 163.851 617.556 165.838 618.276 167.226C619.024 168.59 620.41 169.311 622.435 169.389ZM636.724 174.745L636.84 171.748C637.617 170.283 638.588 168.987 639.753 167.857C640.944 166.729 642.229 165.591 643.608 164.444C644.877 163.372 645.884 162.517 646.629 161.879C647.374 161.241 647.905 160.621 648.222 160.019C648.566 159.419 648.754 158.692 648.787 157.839C648.872 155.654 647.502 154.507 644.677 154.398C643.584 154.356 642.5 154.447 641.424 154.672C640.349 154.871 639.324 155.138 638.351 155.474L638.566 149.918C639.619 149.585 640.844 149.326 642.238 149.14C643.66 148.954 645.064 148.889 646.449 148.942C649.46 149.059 651.723 149.907 653.236 151.487C654.749 153.066 655.453 155.228 655.347 157.973C655.287 159.519 654.875 160.85 654.111 161.968C653.349 163.06 652.223 164.204 650.736 165.4C649.635 166.265 648.643 167.067 647.761 167.807C646.906 168.521 646.169 169.293 645.55 170.123L655.102 170.493L654.911 175.449L636.724 174.745ZM657.373 175.545L657.489 172.547C658.266 171.082 659.237 169.786 660.401 168.656C661.593 167.528 662.878 166.391 664.256 165.243C665.525 164.171 666.533 163.316 667.278 162.678C668.023 162.04 668.554 161.42 668.871 160.818C669.214 160.218 669.403 159.491 669.436 158.638C669.52 156.453 668.15 155.306 665.326 155.197C664.233 155.155 663.149 155.246 662.073 155.471C660.997 155.67 659.973 155.937 658.999 156.273L659.214 150.717C660.268 150.384 661.492 150.125 662.887 149.939C664.309 149.753 665.712 149.688 667.098 149.741C670.109 149.858 672.371 150.706 673.885 152.286C675.398 153.865 676.102 156.027 675.995 158.772C675.936 160.318 675.524 161.649 674.76 162.767C673.997 163.859 672.872 165.003 671.385 166.199C670.284 167.064 669.292 167.866 668.409 168.606C667.554 169.32 666.817 170.092 666.198 170.922L675.751 171.292L675.559 176.248L657.373 175.545Z" fill="white"/>
<ellipse cx="302.023" cy="67.6533" rx="13.875" ry="13.9806" transform="rotate(2.2161 302.023 67.6533)" fill="#274F92"/>
<ellipse cx="361.179" cy="69.9425" rx="13.875" ry="13.9806" transform="rotate(2.2161 361.179 69.9425)" fill="#274F92"/>
<ellipse cx="420.335" cy="72.2317" rx="13.875" ry="13.9806" transform="rotate(2.2161 420.335 72.2317)" fill="#274F92"/>
<ellipse cx="485.96" cy="74.7712" rx="13.875" ry="13.9806" transform="rotate(2.2161 485.96 74.7712)" fill="#274F92"/>
<ellipse cx="546.965" cy="77.1319" rx="13.875" ry="13.9806" transform="rotate(2.2161 546.965 77.1319)" fill="#274F92"/>
<ellipse cx="606.121" cy="79.4211" rx="13.875" ry="13.9806" transform="rotate(2.2161 606.121 79.4211)" fill="#274F92"/>
<ellipse cx="663.428" cy="81.6388" rx="13.875" ry="13.9806" transform="rotate(2.2161 663.428 81.6388)" fill="#274F92"/>
<line x1="331.743" y1="464.06" x2="340.791" y2="230.235" stroke="#999999"/>
<line x1="389.253" y1="466.295" x2="398.302" y2="232.452" stroke="#999999"/>
<line x1="444.658" y1="468.43" x2="453.668" y2="235.604" stroke="#999999"/>
<line x1="500.669" y1="470.597" x2="509.679" y2="237.772" stroke="#999999"/>
<line x1="557.626" y1="472.805" x2="566.636" y2="239.979" stroke="#999999"/>
<line x1="625.539" y1="242.255" x2="616.53" y2="475.081" stroke="#999999"/>
<line x1="283.234" y1="285.051" x2="675.941" y2="300.247" stroke="#999999"/>
<path d="M281.028 342.008L673.736 357.205" stroke="#999999"/>
<path d="M278.806 399.465L671.513 414.662" stroke="#999999"/>
<rect x="285.332" y="228.089" width="393" height="1" transform="rotate(2.2161 285.332 228.089)" fill="#999999"/>
</svg>
